<?xml version="1.0" encoding="UTF-8"?>
<svg version="1.1" xmlns="http://www.w3.org/2000/svg" width="300" height="168">
<path d="M0 0 C99 0 198 0 300 0 C300 55.44 300 110.88 300 168 C201 168 102 168 0 168 C0 112.56 0 57.12 0 0 Z " fill="#131010" transform="translate(0,0)"/>
<path d="M0 0 C99 0 198 0 300 0 C300 55.44 300 110.88 300 168 C201 168 102 168 0 168 C0 112.56 0 57.12 0 0 Z M1 41 C1 69.38 1 97.76 1 127 C99.34 127 197.68 127 299 127 C299 98.62 299 70.24 299 41 C200.66 41 102.32 41 1 41 Z " fill="#FFFFFF" transform="translate(0,0)"/>
<path d="M0 0 C30.24168514 0 30.24168514 0 36.20703125 4.76171875 C42.1989183 11.94906746 44.57665277 17.81962284 44.2890625 27.2578125 C43.53240102 34.43587141 40.93638247 41.54366417 35.3984375 46.40625 C24.43454689 54.71369135 14.82801362 52 0 52 C0 34.84 0 17.68 0 0 Z " fill="#FBFBFB" transform="translate(7,58)"/>
<path d="M0 0 C4.46041712 2.57366984 7.65941348 6.40991904 9.23046875 11.3359375 C10.66694122 18.98764233 10.06450177 25.53957544 6.14453125 32.33203125 C3.72384912 35.68613837 1.59737986 37.48571514 -2.375 38.4375 C-9.28497854 39.30028439 -16.19960311 39.98995977 -22.125 35.8125 C-26.34933718 32.21610483 -28.19662381 28.03163672 -28.80859375 22.5625 C-28.82564874 21.18760516 -28.82671447 19.81242714 -28.8125 18.4375 C-28.83248047 17.75171875 -28.85246094 17.0659375 -28.87304688 16.359375 C-28.86738353 10.42418681 -26.83501252 6.96968892 -22.77734375 2.79296875 C-16.17464421 -2.47158368 -7.86082048 -3.50367998 0 0 Z " fill="#F9F9F9" transform="translate(143.375,71.5625)"/>
<path d="M0 0 C3.7229703 2.6592645 6.55543557 5.73587115 8.625 9.875 C8.7643329 14.21103979 8.66754111 18.53580671 8.625 22.875 C1.035 22.875 -6.555 22.875 -14.375 22.875 C-12.10278279 27.84617049 -12.10278279 27.84617049 -9.359375 28.6171875 C-8.62203125 28.66101563 -7.8846875 28.70484375 -7.125 28.75 C-6.33738281 28.79769531 -5.54976562 28.84539062 -4.73828125 28.89453125 C-1.51467452 28.86788987 1.4595767 28.48114489 4.625 27.875 C5.285 30.845 5.945 33.815 6.625 36.875 C-1.8259343 40.14632941 -9.93810971 41.6686414 -18.5546875 37.98828125 C-23.53700343 34.9411567 -26.56936003 30.34116464 -28.375 24.875 C-29.33167494 17.53307604 -28.40050927 11.14852094 -24.375 4.875 C-17.71694073 -1.78305927 -8.7733 -2.92443333 0 0 Z " fill="#F7F7F7" transform="translate(82.375,71.125)"/>
<path d="M0 0 C5.54803149 3.15476301 7.80710576 5.8615144 10.1875 11.8125 C10.1875 15.4425 10.1875 19.0725 10.1875 22.8125 C2.5975 23.1425 -4.9925 23.4725 -12.8125 23.8125 C-11.3125 27.8125 -11.3125 27.8125 -8.8125 28.8125 C-6.43466895 28.72411539 -4.05904854 28.56903579 -1.6875 28.375 C0.23449219 28.22224609 0.23449219 28.22224609 2.1953125 28.06640625 C3.18273437 27.98261719 4.17015625 27.89882812 5.1875 27.8125 C6.88932603 31.67733393 7.36342676 33.69675634 6.1875 37.8125 C-0.7674304 40.28536414 -8.65532114 41.37230072 -15.6875 38.5625 C-21.31760256 35.40964257 -24.32622157 32.84260064 -26.8125 26.8125 C-27.1223809 24.04311392 -27.27850848 21.57004792 -27.25 18.8125 C-27.26998047 18.12671875 -27.28996094 17.4409375 -27.31054688 16.734375 C-27.30488353 10.79918681 -25.27251252 7.34468892 -21.21484375 3.16796875 C-14.62874569 -2.08334677 -7.95201362 -2.4768567 0 0 Z " fill="#F7F7F7" transform="translate(264.8125,71.1875)"/>
<path d="M0 0 C0 3.96 0 7.92 0 12 C2.64 12 5.28 12 8 12 C8 15.3 8 18.6 8 22 C5.36 22 2.72 22 0 22 C0.33 27.94 0.66 33.88 1 40 C3.97 40 6.94 40 10 40 C10 43.3 10 46.6 10 50 C4.96186769 52.06692607 0.37663045 52.64599072 -5 52 C-8.73698169 50.37522535 -10.84763317 48.44378693 -13 45 C-13.96088383 42.11734851 -14.11670941 40.32337729 -14.09765625 37.33203125 C-14.09443359 36.43935547 -14.09121094 35.54667969 -14.08789062 34.62695312 C-14.07951172 33.69818359 -14.07113281 32.76941406 -14.0625 31.8125 C-14.05798828 30.87212891 -14.05347656 29.93175781 -14.04882812 28.96289062 C-14.03704626 26.64186288 -14.02059558 24.32096356 -14 22 C-15.32 22 -16.64 22 -18 22 C-18 18.7 -18 15.4 -18 12 C-16.68 12 -15.36 12 -14 12 C-14.01160156 11.28972656 -14.02320313 10.57945313 -14.03515625 9.84765625 C-14.04869141 8.46900391 -14.04869141 8.46900391 -14.0625 7.0625 C-14.07410156 6.14597656 -14.08570313 5.22945313 -14.09765625 4.28515625 C-14 2 -14 2 -13 1 C-8.53560218 0.21216509 -4.57392462 0 0 0 Z " fill="#F8F8F8" transform="translate(225,59)"/>
<path d="M0 0 C0 3.96 0 7.92 0 12 C2.97 12 5.94 12 9 12 C9 15.3 9 18.6 9 22 C6.03 22 3.06 22 0 22 C0.495 30.415 0.495 30.415 1 39 C5.80388386 40.13074409 5.80388386 40.13074409 10 40 C10 43.3 10 46.6 10 50 C3.92930788 52.42827685 -1.14791286 53.02244633 -7.3125 50.8125 C-10.52481266 48.64605658 -11.45061037 47.56719939 -13 44 C-13.36293271 40.22153782 -13.28209994 36.47877433 -13.1875 32.6875 C-13.17396484 31.66076172 -13.16042969 30.63402344 -13.14648438 29.57617188 C-13.11123883 27.05024091 -13.061967 24.5253934 -13 22 C-14.65 22 -16.3 22 -18 22 C-18 18.7 -18 15.4 -18 12 C-16.35 12 -14.7 12 -13 12 C-13.01160156 11.28972656 -13.02320313 10.57945313 -13.03515625 9.84765625 C-13.04869141 8.46900391 -13.04869141 8.46900391 -13.0625 7.0625 C-13.07410156 6.14597656 -13.08570313 5.22945313 -13.09765625 4.28515625 C-13 2 -13 2 -12 1 C-7.89716722 0.28989433 -4.18274291 0 0 0 Z " fill="#FBFBFB" transform="translate(194,59)"/>
<path d="M0 0 C4.62 0 9.24 0 14 0 C14 17.49 14 34.98 14 53 C9.38 53 4.76 53 0 53 C0 35.51 0 18.02 0 0 Z " fill="#F3F2F2" transform="translate(96,57)"/>
<path d="M0 0 C4.29 0 8.58 0 13 0 C13 12.87 13 25.74 13 39 C8.71 39 4.42 39 0 39 C0 26.13 0 13.26 0 0 Z " fill="#FEFEFE" transform="translate(158,71)"/>
<path d="M0 0 C8 0 8 0 10.875 1.75 C15.18710605 6.31575935 15.38043094 10.13248279 15.25 16.23828125 C14.80317216 21.17433251 13.61863642 24.60617419 9.75 27.9375 C7 29 7 29 0 29 C0 19.43 0 9.86 0 0 Z " fill="#0D0A0A" transform="translate(21,69)"/>
<path d="M0 0 C2.30055997 3.45083995 2.27010256 4.87175728 2.25 8.9375 C2.25515625 9.97777344 2.2603125 11.01804687 2.265625 12.08984375 C2.00629936 14.93098495 1.46519702 16.58707634 0 19 C-2.8125 19.3125 -2.8125 19.3125 -6 19 C-9.02444656 15.97555344 -9.20960336 13.03520754 -9.3125 8.9375 C-9.29621353 5.41419332 -8.8942335 3.00533866 -7 0 C-4.27584084 -1.36207958 -2.87220643 -0.86166193 0 0 Z " fill="#120F0F" transform="translate(137,81)"/>
<path d="M0 0 C2.96102497 2.16074795 3.86895034 3.31562954 4.5625 6.9375 C3.79395747 11.12178713 2.46194162 12.56927503 -1 15 C-4.85210127 15.06641554 -6.99848005 14.87229157 -9.9375 12.3125 C-11.33817538 9.26397123 -11.4842732 7.32073048 -11 4 C-7.55013333 -0.25483556 -5.3106559 -1.64377445 0 0 Z " fill="#81B523" transform="translate(289,96)"/>
<path d="M0 0 C4.29 0 8.58 0 13 0 C13 2.97 13 5.94 13 9 C8.71 9 4.42 9 0 9 C0 6.03 0 3.06 0 0 Z " fill="#F6F6F6" transform="translate(158,57)"/>
<path d="M0 0 C3.375 -0.125 3.375 -0.125 7 0 C9 2 9 2 9 5 C5.7 5 2.4 5 -1 5 C-0.67 3.35 -0.34 1.7 0 0 Z " fill="#0D0B0B" transform="translate(70,80)"/>
<path d="M0 0 C3.0625 0.1875 3.0625 0.1875 5.0625 2.1875 C5.0625 3.1775 5.0625 4.1675 5.0625 5.1875 C1.7625 5.1875 -1.5375 5.1875 -4.9375 5.1875 C-3.69966216 0.23614865 -3.69966216 0.23614865 0 0 Z " fill="#070505" transform="translate(256.9375,79.8125)"/>
</svg>
