<?xml version="1.0" encoding="UTF-8"?>
<svg version="1.1" xmlns="http://www.w3.org/2000/svg" width="342" height="88">
<path d="M0 0 C112.86 0 225.72 0 342 0 C342 29.04 342 58.08 342 88 C229.14 88 116.28 88 0 88 C0 58.96 0 29.92 0 0 Z " fill="#FCF9FA" transform="translate(0,0)"/>
<path d="M0 0 C4.42291631 -0.46625179 8.59484843 -0.70118452 13 0 C15.63989529 2.26512936 16.70781517 4.81969122 18 8 C18.8971875 9.423125 18.8971875 9.423125 19.8125 10.875 C21 13 21 13 21 15 C21.66 15 22.32 15 23 15 C23.226875 14.195625 23.45375 13.39125 23.6875 12.5625 C25.34847993 8.05412589 27.60279596 4.16356492 30 0 C34.29 0 38.58 0 43 0 C43 2.31 43 4.62 43 7 C41.68 7 40.36 7 39 7 C39 13.27 39 19.54 39 26 C40.32 26 41.64 26 43 26 C43 27.98 43 29.96 43 32 C37.39 32 31.78 32 26 32 C25.67 30.68 25.34 29.36 25 28 C24.34 29.32 23.68 30.64 23 32 C22.34 32 21.68 32 21 32 C18.69 27.38 16.38 22.76 14 18 C13.67 20.64 13.34 23.28 13 26 C14.32 26 15.64 26 17 26 C17 27.98 17 29.96 17 32 C11.39 32 5.78 32 0 32 C0 30.02 0 28.04 0 26 C1.65 26 3.3 26 5 26 C5 19.4 5 12.8 5 6 C3.35 6 1.7 6 0 6 C0 4.02 0 2.04 0 0 Z " fill="#EC272D" transform="translate(255,6)"/>
<path d="M0 0 C3.87460078 -0.14584726 7.74849117 -0.23425444 11.625 -0.3125 C12.71941406 -0.35439453 13.81382812 -0.39628906 14.94140625 -0.43945312 C24.0641895 -0.57767711 24.0641895 -0.57767711 27.75 2.234375 C30.07346835 5.09030485 30.71085074 5.98631151 30.375 9.5625 C30.32085937 10.30628906 30.26671875 11.05007812 30.2109375 11.81640625 C30.14132813 12.53699219 30.07171875 13.25757813 30 14 C30 15.32 30 16.64 30 18 C30 20.66666667 30 23.33333333 30 26 C31.32 26 32.64 26 34 26 C34 27.98 34 29.96 34 32 C28.72 32 23.44 32 18 32 C18 30.02 18 28.04 18 26 C18.99 26 19.98 26 21 26 C21 24.02 21 22.04 21 20 C18.36 20 15.72 20 13 20 C13 21.98 13 23.96 13 26 C13.99 26 14.98 26 16 26 C16 27.98 16 29.96 16 32 C10.72 32 5.44 32 0 32 C0 30.02 0 28.04 0 26 C1.32 26 2.64 26 4 26 C4 19.4 4 12.8 4 6 C2.68 6 1.36 6 0 6 C0 4.02 0 2.04 0 0 Z " fill="#EC282E" transform="translate(174,6)"/>
<path d="M0 0 C5.28 0 10.56 0 16 0 C16 1.98 16 3.96 16 6 C14.68 6 13.36 6 12 6 C12 8.31 12 10.62 12 13 C14.97 13 17.94 13 21 13 C21 10.69 21 8.38 21 6 C20.01 6 19.02 6 18 6 C18 4.02 18 2.04 18 0 C23.28 0 28.56 0 34 0 C34 1.98 34 3.96 34 6 C32.68 6 31.36 6 30 6 C30 12.6 30 19.2 30 26 C31.32 26 32.64 26 34 26 C34 27.98 34 29.96 34 32 C28.72 32 23.44 32 18 32 C18 30.02 18 28.04 18 26 C18.99 26 19.98 26 21 26 C21 23.69 21 21.38 21 19 C18.03 19 15.06 19 12 19 C12 21.31 12 23.62 12 26 C13.32 26 14.64 26 16 26 C16 27.98 16 29.96 16 32 C10.72 32 5.44 32 0 32 C0 30.02 0 28.04 0 26 C1.32 26 2.64 26 4 26 C4 19.4 4 12.8 4 6 C2.68 6 1.36 6 0 6 C0 4.02 0 2.04 0 0 Z " fill="#EC2329" transform="translate(76,6)"/>
<path d="M0 0 C5.61 0 11.22 0 17 0 C17 1.98 17 3.96 17 6 C15.68 6 14.36 6 13 6 C13 12.6 13 19.2 13 26 C15.97 26 18.94 26 22 26 C22 19.4 22 12.8 22 6 C21.01 6 20.02 6 19 6 C19 4.02 19 2.04 19 0 C24.28 0 29.56 0 35 0 C35 1.98 35 3.96 35 6 C33.68 6 32.36 6 31 6 C31.04713135 6.91495239 31.04713135 6.91495239 31.09521484 7.84838867 C31.22038338 10.62771102 31.29810435 13.40644066 31.375 16.1875 C31.42527344 17.14720703 31.47554687 18.10691406 31.52734375 19.09570312 C31.66938798 25.93750031 31.66938798 25.93750031 29.88378906 28.77172852 C26.25184813 32.15450141 22.79386748 32.65185937 18 32.5625 C16.824375 32.56378906 15.64875 32.56507812 14.4375 32.56640625 C10.09938122 31.85160259 8.08811115 31.18607238 5 28 C4.26156105 24.22648449 4.43563157 20.57621333 4.625 16.75 C4.65207031 15.71875 4.67914062 14.6875 4.70703125 13.625 C4.77769201 11.0812125 4.87627922 8.54166901 5 6 C3.35 6 1.7 6 0 6 C0 4.02 0 2.04 0 0 Z " fill="#EC242A" transform="translate(2,6)"/>
<path d="M0 0 C1.23556641 0.01740234 1.23556641 0.01740234 2.49609375 0.03515625 C3.32238281 0.04417969 4.14867187 0.05320312 5 0.0625 C5.63808594 0.07410156 6.27617187 0.08570313 6.93359375 0.09765625 C8.27177535 4.05436741 9.60331575 8.01328153 10.93359375 11.97265625 C11.31515625 13.10058594 11.69671875 14.22851562 12.08984375 15.390625 C12.45078125 16.46699219 12.81171875 17.54335938 13.18359375 18.65234375 C13.51875 19.64733887 13.85390625 20.64233398 14.19921875 21.66748047 C14.93359375 24.09765625 14.93359375 24.09765625 14.93359375 26.09765625 C16.58359375 26.09765625 18.23359375 26.09765625 19.93359375 26.09765625 C19.93359375 28.07765625 19.93359375 30.05765625 19.93359375 32.09765625 C14.32359375 32.09765625 8.71359375 32.09765625 2.93359375 32.09765625 C2.93359375 30.11765625 2.93359375 28.13765625 2.93359375 26.09765625 C3.92359375 26.09765625 4.91359375 26.09765625 5.93359375 26.09765625 C5.93359375 25.10765625 5.93359375 24.11765625 5.93359375 23.09765625 C3.59047245 23.35326948 1.25515972 23.69036397 -1.06640625 24.09765625 C-1.39640625 24.75765625 -1.72640625 25.41765625 -2.06640625 26.09765625 C-0.74640625 26.09765625 0.57359375 26.09765625 1.93359375 26.09765625 C1.93359375 28.07765625 1.93359375 30.05765625 1.93359375 32.09765625 C-3.67640625 32.09765625 -9.28640625 32.09765625 -15.06640625 32.09765625 C-15.06640625 30.11765625 -15.06640625 28.13765625 -15.06640625 26.09765625 C-14.44983154 26.04222656 -13.83325684 25.98679687 -13.19799805 25.9296875 C-10.83864678 25.28094413 -10.83864678 25.28094413 -9.89379883 22.796875 C-9.58595459 21.80300781 -9.27811035 20.80914063 -8.9609375 19.78515625 C-8.61740234 18.71007812 -8.27386719 17.635 -7.91992188 16.52734375 C-7.40461914 14.82964844 -7.40461914 14.82964844 -6.87890625 13.09765625 C-6.17922424 10.86781668 -5.47751218 8.63861273 -4.7734375 6.41015625 C-4.46897705 5.41628906 -4.1645166 4.42242187 -3.85083008 3.3984375 C-2.73626118 0.12931291 -2.73626118 0.12931291 0 0 Z " fill="#EC2A2F" transform="translate(319.06640625,5.90234375)"/>
<path d="M0 0 C2.97 0 5.94 0 9 0 C10.91711748 4.61528283 12.77851508 9.18758644 14.23828125 13.96875 C14.44815674 14.64542725 14.65803223 15.32210449 14.87426758 16.01928711 C15.28793256 17.3700332 15.68779196 18.72509277 16.07299805 20.08422852 C16.6855133 22.19901994 16.6855133 22.19901994 18 25 C20.04706719 26.04167275 20.04706719 26.04167275 22 26 C22 27.98 22 29.96 22 32 C16.39 32 10.78 32 5 32 C5 30.02 5 28.04 5 26 C6.32 26 7.64 26 9 26 C8.67 25.34 8.34 24.68 8 24 C5.69 24 3.38 24 1 24 C0.67 24.66 0.34 25.32 0 26 C1.32 26 2.64 26 4 26 C4 27.98 4 29.96 4 32 C-1.61 32 -7.22 32 -13 32 C-13 30.02 -13 28.04 -13 26 C-11.35 26 -9.7 26 -8 26 C-7.690625 24.2984375 -7.690625 24.2984375 -7.375 22.5625 C-5.68351233 14.82643138 -2.71054009 7.42415226 0 0 Z " fill="#EC292E" transform="translate(129,6)"/>
<path d="M0 0 C2.97 0 5.94 0 9 0 C10.91711748 4.61528283 12.77851508 9.18758644 14.23828125 13.96875 C14.44815674 14.64542725 14.65803223 15.32210449 14.87426758 16.01928711 C15.28793256 17.3700332 15.68779196 18.72509277 16.07299805 20.08422852 C16.6855133 22.19901994 16.6855133 22.19901994 18 25 C20.04706719 26.04167275 20.04706719 26.04167275 22 26 C22 27.98 22 29.96 22 32 C16.72 32 11.44 32 6 32 C6 30.02 6 28.04 6 26 C6.99 26 7.98 26 9 26 C8.67 25.34 8.34 24.68 8 24 C5.67843403 23.59270772 3.3431213 23.25561323 1 23 C1 23.99 1 24.98 1 26 C1.99 26 2.98 26 4 26 C4 27.98 4 29.96 4 32 C-1.28 32 -6.56 32 -12 32 C-12 30.02 -12 28.04 -12 26 C-10.68 26 -9.36 26 -8 26 C-7.690625 24.2984375 -7.690625 24.2984375 -7.375 22.5625 C-5.68351233 14.82643138 -2.71054009 7.42415226 0 0 Z " fill="#EC282E" transform="translate(227,6)"/>
<path d="M0 0 C1.6328125 1.2578125 1.6328125 1.2578125 3.7578125 4.0078125 C3.7578125 5.3278125 3.7578125 6.6478125 3.7578125 8.0078125 C1.1178125 8.0078125 -1.5221875 8.0078125 -4.2421875 8.0078125 C-4.2421875 7.0178125 -4.2421875 6.0278125 -4.2421875 5.0078125 C-7.2121875 5.0078125 -10.1821875 5.0078125 -13.2421875 5.0078125 C-13.2421875 7.3178125 -13.2421875 9.6278125 -13.2421875 12.0078125 C-12.15550781 11.92080078 -12.15550781 11.92080078 -11.046875 11.83203125 C-2.14577144 11.41664642 -2.14577144 11.41664642 1.4453125 13.8828125 C4.25889336 17.6849488 4.65929431 20.03742667 4.3125 24.69140625 C3.7578125 27.0078125 3.7578125 27.0078125 1.6328125 29.6328125 C-3.74132919 32.31988335 -10.46344942 31.80699968 -16.2421875 31.0078125 C-19.27270344 29.67206244 -20.15874143 28.70403682 -22.2421875 26.0078125 C-22.2421875 24.6878125 -22.2421875 23.3678125 -22.2421875 22.0078125 C-19.2721875 22.0078125 -16.3021875 22.0078125 -13.2421875 22.0078125 C-13.2421875 22.9978125 -13.2421875 23.9878125 -13.2421875 25.0078125 C-10.2721875 25.0078125 -7.3021875 25.0078125 -4.2421875 25.0078125 C-4.2421875 22.6978125 -4.2421875 20.3878125 -4.2421875 18.0078125 C-5.03882812 18.06582031 -5.83546875 18.12382812 -6.65625 18.18359375 C-16.40729924 18.59878441 -16.40729924 18.59878441 -19.9921875 16.0703125 C-22.60178166 12.51836489 -23.15880189 10.50385295 -22.796875 6.16796875 C-22.07359271 3.35124266 -20.90118637 1.48360838 -18.484375 -0.17578125 C-12.81859372 -2.23875736 -5.55572215 -2.45845545 0 0 Z " fill="#EC252B" transform="translate(65.2421875,6.9921875)"/>
<path d="M0 0 C0.99 0.33 1.98 0.66 3 1 C3.69658363 2.65438613 4.36096883 4.32254318 5 6 C5.75216797 6.64775391 5.75216797 6.64775391 6.51953125 7.30859375 C8.59942776 9.68483436 8.50444643 11.57558924 8.6875 14.6875 C8.78611328 16.17830078 8.78611328 16.17830078 8.88671875 17.69921875 C8.92410156 18.45847656 8.96148437 19.21773437 9 20 C7.05731159 17.08596738 5.53604696 14.14191424 4 11 C6.14336161 14.4766338 6.21277626 17.21229195 6.125 21.25 C6.10695312 22.32765625 6.08890625 23.4053125 6.0703125 24.515625 C6.04710937 25.33546875 6.02390625 26.1553125 6 27 C6.99 27 7.98 27 9 27 C9 30.63 9 34.26 9 38 C4.05 38 -0.9 38 -6 38 C-5.70703125 36.01432292 -5.4140625 34.02864583 -5.12109375 32.04296875 C-4.86095201 29.7974658 -4.86095201 29.7974658 -6 27 C-4.68 27 -3.36 27 -2 27 C-2.495 26.278125 -2.99 25.55625 -3.5 24.8125 C-6.14167704 19.69037503 -5.22390866 13.58942357 -5 8 C-3.68 7.34 -2.36 6.68 -1 6 C-1.020625 5.195625 -1.04125 4.39125 -1.0625 3.5625 C-1 1 -1 1 0 0 Z " fill="#3C643D" transform="translate(161,3)"/>
<path d="M0 0 C1.98 0 3.96 0 6 0 C6 4.62 6 9.24 6 14 C6.66 14 7.32 14 8 14 C8 9.38 8 4.76 8 0 C9.32 0 10.64 0 12 0 C12.33 1.32 12.66 2.64 13 4 C13.33 2.68 13.66 1.36 14 0 C14.99 0 15.98 0 17 0 C16.67 6.27 16.34 12.54 16 19 C15.01 18.67 14.02 18.34 13 18 C11.8125 14.4375 11.8125 14.4375 11 11 C11 13.31 11 15.62 11 18 C8.36 18 5.72 18 3 18 C3 16.02 3 14.04 3 12 C2.34 12 1.68 12 1 12 C1 13.98 1 15.96 1 18 C0.01 18 -0.98 18 -2 18 C-1.34 12.06 -0.68 6.12 0 0 Z " fill="#454A9A" transform="translate(205,43)"/>
<path d="M0 0 C2.97 0 5.94 0 9 0 C9.66 1.65 10.32 3.3 11 5 C11.33 3.35 11.66 1.7 12 0 C12.99 0 13.98 0 15 0 C14.67 6.27 14.34 12.54 14 19 C11 18 11 18 9.8125 15.9375 C9.4103125 14.9784375 9.4103125 14.9784375 9 14 C9 15.32 9 16.64 9 18 C6.03 18 3.06 18 0 18 C0 12.06 0 6.12 0 0 Z " fill="#9396C4" transform="translate(175,43)"/>
<path d="M0 0 C2.375 0.9375 2.375 0.9375 4 3 C4.63273872 6.1222995 4.64663246 8.87929554 4 12 C1.875 14.625 1.875 14.625 -1 16 C-4.48787032 16 -6.22839909 15.66872079 -8.875 13.375 C-10.46134558 10.02604821 -10.45746657 7.65973254 -10 4 C-7.24846472 -0.12730291 -4.82246105 -0.70327557 0 0 Z " fill="#ED3339" transform="translate(223,71)"/>
<path d="M0 0 C2.375 0.9375 2.375 0.9375 4 3 C4.63273872 6.1222995 4.64663246 8.87929554 4 12 C1.875 14.625 1.875 14.625 -1 16 C-4.48787032 16 -6.22839909 15.66872079 -8.875 13.375 C-10.46134558 10.02604821 -10.45746657 7.65973254 -10 4 C-7.24846472 -0.12730291 -4.82246105 -0.70327557 0 0 Z " fill="#ED3339" transform="translate(177,71)"/>
<path d="M0 0 C2.375 0.9375 2.375 0.9375 4 3 C4.80626676 7.34396788 4.71463239 10.79941758 2.4375 14.625 C0 16 0 16 -3.5625 16 C-7 15 -7 15 -8.9375 13.375 C-10.43699866 10.02317947 -10.45377473 7.63019782 -10 4 C-7.24846472 -0.12730291 -4.82246105 -0.70327557 0 0 Z " fill="#ED363C" transform="translate(133,71)"/>
<path d="M0 0 C1.65 0 3.3 0 5 0 C4.67 4.62 4.34 9.24 4 14 C4.66 14 5.32 14 6 14 C6 13.01 6 12.02 6 11 C6.66 11 7.32 11 8 11 C8 7.37 8 3.74 8 0 C9.65 0 11.3 0 13 0 C12.67 4.62 12.34 9.24 12 14 C12.66 14 13.32 14 14 14 C14 13.01 14 12.02 14 11 C14.66 11 15.32 11 16 11 C16 13.31 16 15.62 16 18 C10.72 18 5.44 18 0 18 C0 12.06 0 6.12 0 0 Z " fill="#464C9B" transform="translate(33,43)"/>
<path d="M0 0 C2.64 0 5.28 0 8 0 C8 6.27 8 12.54 8 19 C5.36 19 2.72 19 0 19 C0 12.73 0 6.46 0 0 Z " fill="#FEFCFC" transform="translate(16,13)"/>
<path d="M0 0 C2.97 0 5.94 0 9 0 C9 5.94 9 11.88 9 18 C6.03 18 3.06 18 0 18 C0 12.06 0 6.12 0 0 Z " fill="#4A509E" transform="translate(263,43)"/>
<path d="M0 0 C1.98 0 3.96 0 6 0 C8.82198263 2.91604872 9.21996069 5.64775732 9.375 9.5625 C9.26338818 12.35279559 9.01052381 13.97602909 7.875 16.5625 C6 18 6 18 0 18 C0 12.06 0 6.12 0 0 Z " fill="#6B70AF" transform="translate(223,43)"/>
<path d="M0 0 C2.31 0 4.62 0 7 0 C9.45391569 3.68087353 9.22802759 6.44355588 9.125 10.6875 C9.11597656 11.38939453 9.10695312 12.09128906 9.09765625 12.81445312 C9.07413704 14.54311525 9.03826713 16.27160145 9 18 C8.01 18 7.02 18 6 18 C5.67 16.35 5.34 14.7 5 13 C4.67 14.65 4.34 16.3 4 18 C2.68 18 1.36 18 0 18 C0 12.06 0 6.12 0 0 Z " fill="#565AA4" transform="translate(165,43)"/>
<path d="M0 0 C1.9375 0.9375 1.9375 0.9375 3.1875 2.5 C4.66281751 7.29478191 4.58677981 11.37922844 2.6875 15.9375 C2.11 16.5975 1.5325 17.2575 0.9375 17.9375 C-0.3825 17.9375 -1.7025 17.9375 -3.0625 17.9375 C-4.99976484 14.67270707 -5.35958488 12.15170339 -5.375 8.375 C-5.39175781 7.42496094 -5.40851563 6.47492187 -5.42578125 5.49609375 C-5.0625 2.9375 -5.0625 2.9375 -3.671875 1.09375 C-2.0625 -0.0625 -2.0625 -0.0625 0 0 Z " fill="#565BA4" transform="translate(86.0625,43.0625)"/>
<path d="M0 0 C1.32 0 2.64 0 4 0 C4.99 2.64 5.98 5.28 7 8 C8.32 5.36 9.64 2.72 11 0 C11.99 0 12.98 0 14 0 C14 5.28 14 10.56 14 16 C13.34 16 12.68 16 12 16 C11.67 13.36 11.34 10.72 11 8 C10.01 10.31 9.02 12.62 8 15 C7.01 14.67 6.02 14.34 5 14 C3.8125 10.4375 3.8125 10.4375 3 7 C2.67 9.64 2.34 12.28 2 15 C1.34 15 0.68 15 0 15 C0 10.05 0 5.1 0 0 Z " fill="#EC2A30" transform="translate(190,71)"/>
<path d="M0 0 C2.86724686 0.57344937 3.8614515 0.8614515 6 3 C6.63106784 7.63056274 6.50017496 11.80910724 4.6875 16.125 C4.130625 16.74375 3.57375 17.3625 3 18 C2.01 18 1.02 18 0 18 C-2.07544604 15.89532233 -2.91960866 14.49180584 -3.3984375 11.5625 C-3.39070313 10.716875 -3.38296875 9.87125 -3.375 9 C-3.38273437 8.154375 -3.39046875 7.30875 -3.3984375 6.4375 C-2.9291142 3.56634568 -1.89489101 2.16558973 0 0 Z " fill="#6D71B0" transform="translate(305,43)"/>
<path d="M0 0 C1.875 0.3125 1.875 0.3125 4 1 C6.70644166 5.05966249 6.40894945 8.2428329 6 13 C5.1875 16 5.1875 16 4 18 C3.01 18.33 2.02 18.66 1 19 C-1.42742334 16.72429062 -2.85946981 14.91566516 -3.37109375 11.58203125 C-3.49612016 6.60303831 -3.36615643 3.86616906 0 0 Z " fill="#5459A3" transform="translate(26,43)"/>
<path d="M0 0 C1.32 0 2.64 0 4 0 C4.66 1.32 5.32 2.64 6 4 C6 2.68 6 1.36 6 0 C7.32 0 8.64 0 10 0 C9.67 6.27 9.34 12.54 9 19 C8.01 19 7.02 19 6 19 C5.34 17.02 4.68 15.04 4 13 C3.67 14.65 3.34 16.3 3 18 C2.01 18 1.02 18 0 18 C0 12.06 0 6.12 0 0 Z " fill="#464C9B" transform="translate(111,43)"/>
<path d="M0 0 C2.4375 0.375 2.4375 0.375 5 1 C6.34553453 3.69106907 6.20594114 5.87165422 6.25 8.875 C6.28867187 10.44894531 6.28867187 10.44894531 6.328125 12.0546875 C5.96595818 15.30556586 5.18132146 16.62350767 3 19 C-0.875 17.25 -0.875 17.25 -2 15 C-2.12227926 13.02362586 -2.17549929 11.0426169 -2.1875 9.0625 C-2.20167969 8.00160156 -2.21585937 6.94070312 -2.23046875 5.84765625 C-2 3 -2 3 0 0 Z " fill="#7175B3" transform="translate(286,43)"/>
<path d="M0 0 C2.64 0 5.28 0 8 0 C8 1.98 8 3.96 8 6 C7.01 6.33 6.02 6.66 5 7 C5 8.98 5 10.96 5 13 C5.99 13 6.98 13 8 13 C8 14.65 8 16.3 8 18 C5.36 18 2.72 18 0 18 C0 12.06 0 6.12 0 0 Z " fill="#4C519F" transform="translate(50,43)"/>
<path d="M0 0 C1.32 0 2.64 0 4 0 C4.66 2.31 5.32 4.62 6 7 C6.33 5.02 6.66 3.04 7 1 C7.66 1 8.32 1 9 1 C9 6.94 9 12.88 9 19 C8.01 19 7.02 19 6 19 C4.68373308 15.38026598 4 12.90432869 4 9 C3.34 9 2.68 9 2 9 C2.33 11.97 2.66 14.94 3 18 C2.01 18 1.02 18 0 18 C0 12.06 0 6.12 0 0 Z " fill="#454A9A" transform="translate(273,43)"/>
<path d="M0 0 C3.5625 0.3125 3.5625 0.3125 5.5 1.6875 C6.5625 3.3125 6.5625 3.3125 6.5625 5.3125 C5.5725 5.3125 4.5825 5.3125 3.5625 5.3125 C3.5625 4.6525 3.5625 3.9925 3.5625 3.3125 C1.5825 3.3125 -0.3975 3.3125 -2.4375 3.3125 C-1.50783509 5.7388724 -1.50783509 5.7388724 2.0625 6.625 C5.5625 8.3125 5.5625 8.3125 6.6875 10.8125 C6.5625 13.3125 6.5625 13.3125 5.5625 15.1875 C2.40327063 16.96456652 -0.01725057 16.12092259 -3.4375 15.3125 C-4.0975 14.6525 -4.7575 13.9925 -5.4375 13.3125 C-5.4375 12.3225 -5.4375 11.3325 -5.4375 10.3125 C-4.4475 10.3125 -3.4575 10.3125 -2.4375 10.3125 C-2.1075 10.9725 -1.7775 11.6325 -1.4375 12.3125 C-0.1175 12.3125 1.2025 12.3125 2.5625 12.3125 C2.5625 11.6525 2.5625 10.9925 2.5625 10.3125 C0.8609375 9.7246875 0.8609375 9.7246875 -0.875 9.125 C-4.4375 7.3125 -4.4375 7.3125 -5.5 4.75 C-5.39457489 0.63842056 -3.89512983 0.35410271 0 0 Z " fill="#EF474C" transform="translate(262.4375,70.6875)"/>
<path d="M0 0 C2.64 0 5.28 0 8 0 C8 1.98 8 3.96 8 6 C6.68 5.67 5.36 5.34 4 5 C4 5.66 4 6.32 4 7 C4.66 7 5.32 7 6 7 C6 8.32 6 9.64 6 11 C5.34 11 4.68 11 4 11 C4 11.99 4 12.98 4 14 C4.66 14 5.32 14 6 14 C6 13.34 6 12.68 6 12 C6.66 12 7.32 12 8 12 C8 13.98 8 15.96 8 18 C5.36 18 2.72 18 0 18 C0 12.06 0 6.12 0 0 Z " fill="#434899" transform="translate(102,43)"/>
<path d="M0 0 C4 1 4 1 5.484375 2.84765625 C5.90203125 3.57855469 6.3196875 4.30945313 6.75 5.0625 C7.39195312 6.16271484 7.39195312 6.16271484 8.046875 7.28515625 C8.36140625 7.85105469 8.6759375 8.41695312 9 9 C9.33 6.03 9.66 3.06 10 0 C10.66 0 11.32 0 12 0 C12 4.95 12 9.9 12 15 C8 14 8 14 6.734375 12.37109375 C5.82291667 10.58072917 4.91145833 8.79036458 4 7 C3.67 9.97 3.34 12.94 3 16 C2.01 16 1.02 16 0 16 C0 10.72 0 5.44 0 0 Z " fill="#EE3C41" transform="translate(146,71)"/>
<path d="M0 0 C2.64 0 5.28 0 8 0 C8 1.98 8 3.96 8 6 C6.35 5.67 4.7 5.34 3 5 C3 5.66 3 6.32 3 7 C3.66 7 4.32 7 5 7 C5 8.98 5 10.96 5 13 C5.66 12.67 6.32 12.34 7 12 C7 13.98 7 15.96 7 18 C4.69 18 2.38 18 0 18 C0 12.06 0 6.12 0 0 Z " fill="#474D9C" transform="translate(69,43)"/>
<path d="M0 0 C2.64 0 5.28 0 8 0 C8 1.98 8 3.96 8 6 C6.68 5.67 5.36 5.34 4 5 C4.27540704 8.81813447 4.27540704 8.81813447 6 12 C6.66 12 7.32 12 8 12 C8 13.98 8 15.96 8 18 C5.36 18 2.72 18 0 18 C0 12.06 0 6.12 0 0 Z " fill="#434899" transform="translate(156,43)"/>
<path d="M0 0 C2.64 0 5.28 0 8 0 C8 1.98 8 3.96 8 6 C6.68 5.67 5.36 5.34 4 5 C4.185625 5.928125 4.37125 6.85625 4.5625 7.8125 C5 11 5 11 4 14 C4.66 14 5.32 14 6 14 C6 13.34 6 12.68 6 12 C6.66 12 7.32 12 8 12 C8 13.98 8 15.96 8 18 C5.36 18 2.72 18 0 18 C0 12.06 0 6.12 0 0 Z " fill="#424899" transform="translate(147,43)"/>
<path d="M0 0 C1.98 0 3.96 0 6 0 C6 4.62 6 9.24 6 14 C6.66 14 7.32 14 8 14 C8 15.32 8 16.64 8 18 C6.35 18 4.7 18 3 18 C3 16.02 3 14.04 3 12 C2.34 12 1.68 12 1 12 C1 13.98 1 15.96 1 18 C0.01 18 -0.98 18 -2 18 C-1.34 12.06 -0.68 6.12 0 0 Z " fill="#4E53A0" transform="translate(205,43)"/>
<path d="M0 0 C0.94875 0.04125 1.8975 0.0825 2.875 0.125 C2.875 2.105 2.875 4.085 2.875 6.125 C0.4 5.135 0.4 5.135 -2.125 4.125 C-2.125 7.425 -2.125 10.725 -2.125 14.125 C-1.465 14.125 -0.805 14.125 -0.125 14.125 C-0.455 12.475 -0.785 10.825 -1.125 9.125 C0.195 9.125 1.515 9.125 2.875 9.125 C2.52266839 14.5861399 2.52266839 14.5861399 1.875 17.125 C-0.1875 18.625 -0.1875 18.625 -2.125 19.125 C-3.60546875 18.06640625 -3.60546875 18.06640625 -5.125 16.125 C-5.48828125 12.83984375 -5.48828125 12.83984375 -5.4375 9.0625 C-5.43363281 7.81339844 -5.42976563 6.56429687 -5.42578125 5.27734375 C-5.01603533 0.98299367 -4.33651547 0.17346062 0 0 Z " fill="#424799" transform="translate(318.125,42.875)"/>
<path d="M0 0 C0.99 0 1.98 0 3 0 C3.83986084 1.93467942 4.67168027 3.87285129 5.5 5.8125 C5.9640625 6.89144531 6.428125 7.97039062 6.90625 9.08203125 C8 12 8 12 8 15 C7.01 14.67 6.02 14.34 5 14 C5 13.34 5 12.68 5 12 C2.69 12 0.38 12 -2 12 C-2.33 13.32 -2.66 14.64 -3 16 C-3.66 16 -4.32 16 -5 16 C-4.39363767 10.23955788 -2.24341721 5.27985631 0 0 Z " fill="#EF4E53" transform="translate(67,71)"/>
<path d="M0 0 C2.31 0 4.62 0 7 0 C7 1.98 7 3.96 7 6 C6.34 6 5.68 6 5 6 C5 5.34 5 4.68 5 4 C4.34 4 3.68 4 3 4 C3 4.99 3 5.98 3 7 C3.66 7 4.32 7 5 7 C5 8.32 5 9.64 5 11 C4.34 11 3.68 11 3 11 C3 11.99 3 12.98 3 14 C3.66 14 4.32 14 5 14 C5 13.34 5 12.68 5 12 C5.66 12 6.32 12 7 12 C7 13.98 7 15.96 7 18 C4.36 18 1.72 18 -1 18 C-0.505 9.09 -0.505 9.09 0 0 Z " fill="#44499A" transform="translate(245,43)"/>
<path d="M0 0 C1.32 0 2.64 0 4 0 C4.66 1.65 5.32 3.3 6 5 C6 3.35 6 1.7 6 0 C6.99 0 7.98 0 9 0 C8.67 5.94 8.34 11.88 8 18 C7.01 17.67 6.02 17.34 5 17 C3.96868265 14.39137376 3.56942551 11.75952365 3 9 C3 11.97 3 14.94 3 18 C2.01 18 1.02 18 0 18 C0 12.06 0 6.12 0 0 Z " fill="#3B4195" transform="translate(137,43)"/>
<path d="M0 0 C3.125 -0.1875 3.125 -0.1875 6 0 C6 1.98 6 3.96 6 6 C5.34 6 4.68 6 4 6 C4 5.34 4 4.68 4 4 C3.01 4.495 3.01 4.495 2 5 C2 7.64 2 10.28 2 13 C2.66 13.33 3.32 13.66 4 14 C3.67 12.35 3.34 10.7 3 9 C3.99 9 4.98 9 6 9 C6.25 12.3125 6.25 12.3125 6 16 C4 17.9375 4 17.9375 2 19 C-0.72384266 16.76601837 -1.90019633 15.63011638 -2.4609375 12.08984375 C-2.43257812 11.04957031 -2.40421875 10.00929688 -2.375 8.9375 C-2.36210937 7.89464844 -2.34921875 6.85179687 -2.3359375 5.77734375 C-2 3 -2 3 0 0 Z " fill="#3D4397" transform="translate(193,43)"/>
<path d="M0 0 C3.125 -0.1875 3.125 -0.1875 6 0 C6 1.98 6 3.96 6 6 C4.68 5.67 3.36 5.34 2 5 C1.67 7.97 1.34 10.94 1 14 C1.99 14 2.98 14 4 14 C3.67 12.35 3.34 10.7 3 9 C3.99 9 4.98 9 6 9 C6.36923077 14.41538462 6.36923077 14.41538462 4.5 17.375 C4.005 17.91125 3.51 18.4475 3 19 C-0.875 17.25 -0.875 17.25 -2 15 C-2.12227926 13.02362586 -2.17549929 11.0426169 -2.1875 9.0625 C-2.20167969 8.00160156 -2.21585937 6.94070312 -2.23046875 5.84765625 C-2 3 -2 3 0 0 Z " fill="#3A3F95" transform="translate(124,43)"/>
<path d="M0 0 C0.99 0 1.98 0 3 0 C3.33 3.96 3.66 7.92 4 12 C5.32 12 6.64 12 8 12 C8.33 8.04 8.66 4.08 9 0 C9.99 0 10.98 0 12 0 C12.10841951 1.91541138 12.18578079 3.83259773 12.25 5.75 C12.29640625 6.81734375 12.3428125 7.8846875 12.390625 8.984375 C12 12 12 12 10.1796875 14.39453125 C8 16 8 16 4.875 15.9375 C2 15 2 15 0 12 C-0.1953125 9.08203125 -0.1953125 9.08203125 -0.125 5.8125 C-0.10695312 4.72582031 -0.08890625 3.63914062 -0.0703125 2.51953125 C-0.04710937 1.68808594 -0.02390625 0.85664062 0 0 Z " fill="#EE4146" transform="translate(236,71)"/>
<path d="M0 0 C0.94875 0.04125 1.8975 0.0825 2.875 0.125 C2.875 2.435 2.875 4.745 2.875 7.125 C1.555 6.465 0.235 5.805 -1.125 5.125 C-1.455 8.095 -1.785 11.065 -2.125 14.125 C-1.135 13.135 -0.145 12.145 0.875 11.125 C1.535 11.125 2.195 11.125 2.875 11.125 C2.625 14 2.625 14 1.875 17.125 C-0.1875 18.5 -0.1875 18.5 -2.125 19.125 C-5.34361052 15.67709532 -5.50552459 13.13613737 -5.4375 8.5 C-5.43363281 7.35273437 -5.42976562 6.20546875 -5.42578125 5.0234375 C-4.99535454 0.87568923 -4.16090801 0.16643632 0 0 Z " fill="#414799" transform="translate(19.125,42.875)"/>
<path d="M0 0 C3.125 -0.1875 3.125 -0.1875 6 0 C6 1.98 6 3.96 6 6 C5.34 6 4.68 6 4 6 C4 5.34 4 4.68 4 4 C3.01 4.495 3.01 4.495 2 5 C2 7.64 2 10.28 2 13 C2.66 13.33 3.32 13.66 4 14 C3.67 12.35 3.34 10.7 3 9 C3.99 9 4.98 9 6 9 C6.25 12.3125 6.25 12.3125 6 16 C4 17.9375 4 17.9375 2 19 C-0.72384266 16.76601837 -1.90019633 15.63011638 -2.4609375 12.08984375 C-2.43257812 11.04957031 -2.40421875 10.00929688 -2.375 8.9375 C-2.36210938 7.89464844 -2.34921875 6.85179687 -2.3359375 5.77734375 C-2 3 -2 3 0 0 Z " fill="#3B4195" transform="translate(61,43)"/>
<path d="M0 0 C2.64 0 5.28 0 8 0 C8 2.64 8 5.28 8 8 C7.67 8 7.34 8 7 8 C7 11.3 7 14.6 7 18 C5.35 18 3.7 18 2 18 C2 14.7 2 11.4 2 8 C1.34 8 0.68 8 0 8 C0 5.36 0 2.72 0 0 Z " fill="#464B9B" transform="translate(235,43)"/>
<path d="M0 0 C2.64 0 5.28 0 8 0 C7.855625 1.11375 7.71125 2.2275 7.5625 3.375 C6.95203629 8.24126788 6.47014775 13.11846586 6 18 C4.68 18 3.36 18 2 18 C1.66191314 15.93827387 1.32972639 13.8755797 1 11.8125 C0.814375 10.66394531 0.62875 9.51539063 0.4375 8.33203125 C0.06510523 5.49584607 -0.08596021 2.85280436 0 0 Z " fill="#424799" transform="translate(322,43)"/>
<path d="M0 0 C2.64 0 5.28 0 8 0 C8 1.98 8 3.96 8 6 C7.34 6 6.68 6 6 6 C6 5.34 6 4.68 6 4 C5.34 4 4.68 4 4 4 C4.165 5.010625 4.33 6.02125 4.5 7.0625 C4.96985769 10.76262933 5.07599849 14.27607391 5 18 C3.35 18 1.7 18 0 18 C0 12.06 0 6.12 0 0 Z " fill="#414799" transform="translate(91,43)"/>
<path d="M0 0 C0.78375 0.04125 1.5675 0.0825 2.375 0.125 C2.375 2.435 2.375 4.745 2.375 7.125 C1.715 6.795 1.055 6.465 0.375 6.125 C0.375 5.465 0.375 4.805 0.375 4.125 C-0.285 4.125 -0.945 4.125 -1.625 4.125 C-1.625 7.425 -1.625 10.725 -1.625 14.125 C-0.635 13.135 0.355 12.145 1.375 11.125 C2.035 11.125 2.695 11.125 3.375 11.125 C2.82776317 14.49962715 2.3201 16.20735 0.375 19.125 C-3.5 17.25 -3.5 17.25 -4.625 16.125 C-4.75057162 13.81506618 -4.80075729 11.50081464 -4.8125 9.1875 C-4.82667969 7.92035156 -4.84085938 6.65320312 -4.85546875 5.34765625 C-4.57147168 1.37651083 -4.08781941 0.19465807 0 0 Z " fill="#373D93" transform="translate(258.625,42.875)"/>
<path d="M0 0 C0.99 0 1.98 0 3 0 C2.67 6.27 2.34 12.54 2 19 C1.01 18.67 0.02 18.34 -1 18 C-2.52160014 14.3962102 -3 11.94779314 -3 8 C-3.66 8 -4.32 8 -5 8 C-5 5.69 -5 3.38 -5 1 C-4.01 1 -3.02 1 -2 1 C-1.67 2.32 -1.34 3.64 -1 5 C-0.67 3.35 -0.34 1.7 0 0 Z " fill="#3A4095" transform="translate(187,43)"/>
<path d="M0 0 C1.65 0 3.3 0 5 0 C4.67 4.62 4.34 9.24 4 14 C4.66 14 5.32 14 6 14 C6 13.01 6 12.02 6 11 C6.66 11 7.32 11 8 11 C8 13.31 8 15.62 8 18 C5.69 18 3.38 18 1 18 C0.67 12.06 0.34 6.12 0 0 Z " fill="#424899" transform="translate(293,43)"/>
<path d="M0 0 C0.66 0 1.32 0 2 0 C2.33 3.63 2.66 7.26 3 11 C4.32 11.33 5.64 11.66 7 12 C8.73956658 10.26043342 8.37190386 7.8063378 8.5625 5.4375 C8.64628906 4.42558594 8.73007813 3.41367188 8.81640625 2.37109375 C8.87699219 1.58863281 8.93757813 0.80617188 9 0 C9.66 0 10.32 0 11 0 C11.0810206 2.10353495 11.13919907 4.20795952 11.1875 6.3125 C11.22230469 7.48425781 11.25710937 8.65601562 11.29296875 9.86328125 C11 13 11 13 9.64453125 14.89453125 C7.28900824 16.47793508 5.77585184 16.41637778 3 16 C1.35546875 14.89453125 1.35546875 14.89453125 0 13 C-0.29296875 9.86328125 -0.29296875 9.86328125 -0.1875 6.3125 C-0.16042969 5.13300781 -0.13335937 3.95351562 -0.10546875 2.73828125 C-0.07066406 1.83464844 -0.03585938 0.93101563 0 0 Z " fill="#ED2C32" transform="translate(84,71)"/>
<path d="M0 0 C3.0625 0.1875 3.0625 0.1875 5.0625 2.1875 C5.43046448 5.05762296 5.43759409 6.59524618 3.875 9.0625 C2.0625 10.1875 2.0625 10.1875 -0.5625 9.9375 C-2.9375 9.1875 -2.9375 9.1875 -3.9375 8.1875 C-4.0625 4.6875 -4.0625 4.6875 -3.9375 1.1875 C-2.9375 0.1875 -2.9375 0.1875 0 0 Z " fill="#FDF1F1" transform="translate(219.9375,73.8125)"/>
<path d="M0 0 C3.0625 0.1875 3.0625 0.1875 5.0625 2.1875 C5.43046448 5.05762296 5.43759409 6.59524618 3.875 9.0625 C2.0625 10.1875 2.0625 10.1875 -0.5625 9.9375 C-2.9375 9.1875 -2.9375 9.1875 -3.9375 8.1875 C-4.0625 4.6875 -4.0625 4.6875 -3.9375 1.1875 C-2.9375 0.1875 -2.9375 0.1875 0 0 Z " fill="#FDF1F1" transform="translate(173.9375,73.8125)"/>
<path d="M0 0 C1.65 0 3.3 0 5 0 C4.67 4.62 4.34 9.24 4 14 C4.66 14 5.32 14 6 14 C6 13.01 6 12.02 6 11 C6.66 11 7.32 11 8 11 C7.67 12.98 7.34 14.96 7 17 C5.02 17 3.04 17 1 17 C0.67 11.39 0.34 5.78 0 0 Z " fill="#3C4196" transform="translate(33,43)"/>
<path d="M0 0 C2.5 0.25 2.5 0.25 4.5 2.25 C4.125 5.875 4.125 5.875 3.5 9.25 C1.1875 9.875 1.1875 9.875 -1.5 10.25 C-2.49 9.59 -3.48 8.93 -4.5 8.25 C-4.8125 5.25 -4.8125 5.25 -4.5 2.25 C-2.5 0.25 -2.5 0.25 0 0 Z " fill="#FEF7F7" transform="translate(130.5,73.75)"/>
<path d="M0 0 C3.96 0 7.92 0 12 0 C12 0.99 12 1.98 12 3 C10.35 3 8.7 3 7 3 C7 7.29 7 11.58 7 16 C6.01 16 5.02 16 4 16 C4 11.71 4 7.42 4 3 C2.68 3 1.36 3 0 3 C0 2.01 0 1.02 0 0 Z " fill="#EF474C" transform="translate(104,71)"/>
<path d="M0 0 C2.97 0 5.94 0 9 0 C9 2.31 9 4.62 9 7 C8.01 7 7.02 7 6 7 C6 8.98 6 10.96 6 13 C5.34 13 4.68 13 4 13 C4 11.02 4 9.04 4 7 C2.68 7 1.36 7 0 7 C0 4.69 0 2.38 0 0 Z " fill="#FCDEDF" transform="translate(88,25)"/>
<path d="M0 0 C0.66 0 1.32 0 2 0 C2 1.98 2 3.96 2 6 C2.99 6 3.98 6 5 6 C5 8.31 5 10.62 5 13 C2.03 13 -0.94 13 -4 13 C-4 10.69 -4 8.38 -4 6 C-2.68 6 -1.36 6 0 6 C0 4.02 0 2.04 0 0 Z " fill="#FCDEDF" transform="translate(92,6)"/>
<path d="M0 0 C1.65 0 3.3 0 5 0 C5 5.94 5 11.88 5 18 C3.35 18 1.7 18 0 18 C0 12.06 0 6.12 0 0 Z " fill="#474C9C" transform="translate(131,43)"/>
<path d="M0 0 C0.99 0 1.98 0 3 0 C3 2.31 3 4.62 3 7 C-1.95 7 -6.9 7 -12 7 C-11.67 5.68 -11.34 4.36 -11 3 C-5.555 2.505 -5.555 2.505 0 2 C0 1.34 0 0.68 0 0 Z " fill="#4E744E" transform="translate(167,34)"/>
<path d="M0 0 C0.33 0 0.66 0 1 0 C2.823321 6.15370839 3.2361959 11.59646678 3 18 C1.68 17.34 0.36 16.68 -1 16 C-0.67 13.69 -0.34 11.38 0 9 C-1.32 9 -2.64 9 -4 9 C-3.67 10.65 -3.34 12.3 -3 14 C-3.66 14 -4.32 14 -5 14 C-5 10.7 -5 7.4 -5 4 C-2.525 4.99 -2.525 4.99 0 6 C0 4.02 0 2.04 0 0 Z " fill="#E7E7F2" transform="translate(321,43)"/>
<path d="M0 0 C1.32 0 2.64 0 4 0 C4 5.94 4 11.88 4 18 C2.68 18 1.36 18 0 18 C0 12.06 0 6.12 0 0 Z " fill="#454B9B" transform="translate(175,43)"/>
<path d="M0 0 C0.66 0 1.32 0 2 0 C2 5.94 2 11.88 2 18 C1.34 16.68 0.68 15.36 0 14 C0.33 13.01 0.66 12.02 1 11 C0.34 11 -0.32 11 -1 11 C-1.33 11.99 -1.66 12.98 -2 14 C-2.66 14 -3.32 14 -4 14 C-4 10.7 -4 7.4 -4 4 C-3.34 4 -2.68 4 -2 4 C-1.67 4.66 -1.34 5.32 -1 6 C-0.67 4.02 -0.34 2.04 0 0 Z " fill="#E0E1EE" transform="translate(261,43)"/>
<path d="M0 0 C0 0.99 0 1.98 0 3 C2.16666667 2.16666667 2.16666667 2.16666667 3 0 C4.65 0.33 6.3 0.66 8 1 C8 1.99 8 2.98 8 4 C7.01 4 6.02 4 5 4 C5 4.66 5 5.32 5 6 C2.59454362 7.20272819 1.05003047 7.10071472 -1.625 7.0625 C-2.85089844 7.04896484 -2.85089844 7.04896484 -4.1015625 7.03515625 C-5.04128906 7.01775391 -5.04128906 7.01775391 -6 7 C-6 5.02 -6 3.04 -6 1 C-3.92446352 0.4465236 -2.15634036 0 0 0 Z " fill="#365F36" transform="translate(162,30)"/>
<path d="M0 0 C0.66 0 1.32 0 2 0 C2.08153933 1.58246707 2.13943557 3.16616273 2.1875 4.75 C2.22230469 5.63171875 2.25710938 6.5134375 2.29296875 7.421875 C1.94923684 10.44671583 0.99772541 11.75583602 -1 14 C-4.875 12.25 -4.875 12.25 -6 10 C-6.13415472 7.3276379 -6.04318541 4.67749512 -6 2 C-5.34 1.67 -4.68 1.34 -4 1 C-3.67 3.64 -3.34 6.28 -3 9 C-2.01 9 -1.02 9 0 9 C0 6.03 0 3.06 0 0 Z " fill="#383E94" transform="translate(290,48)"/>
<path d="M0 0 C2.64 0 5.28 0 8 0 C8 1.98 8 3.96 8 6 C7.01 6 6.02 6 5 6 C5 7.98 5 9.96 5 12 C4.34 12 3.68 12 3 12 C3 10.02 3 8.04 3 6 C2.01 6 1.02 6 0 6 C0 4.02 0 2.04 0 0 Z " fill="#FDEDED" transform="translate(187,26)"/>
<path d="M0 0 C1.98 0 3.96 0 6 0 C7.78409802 3.06246747 8.22880021 5.22079273 8.125 8.75 C8.10695312 9.54921875 8.08890625 10.3484375 8.0703125 11.171875 C8.03550781 12.07679687 8.03550781 12.07679687 8 13 C7.67 12.34 7.34 11.68 7 11 C6.34 11 5.68 11 5 11 C4.67 8.69 4.34 6.38 4 4 C3.34 4 2.68 4 2 4 C1.67 6.64 1.34 9.28 1 12 C0.67 12 0.34 12 0 12 C0 8.04 0 4.08 0 0 Z " fill="#343991" transform="translate(224,44)"/>
<path d="M0 0 C1.32 0.33 2.64 0.66 4 1 C5.31236443 5.4143167 5.31236443 5.4143167 4 7.875 C0.84077063 9.65206652 -1.57975057 8.80842259 -5 8 C-5.66 7.34 -6.32 6.68 -7 6 C-7 5.01 -7 4.02 -7 3 C-6.01 3 -5.02 3 -4 3 C-3.67 3.66 -3.34 4.32 -3 5 C-1.68 5 -0.36 5 1 5 C0.67 3.35 0.34 1.7 0 0 Z " fill="#EE3A3F" transform="translate(264,78)"/>
<path d="M0 0 C1.81643761 3.11389304 2.2719038 5.40777709 2.25 9 C2.25515625 9.845625 2.2603125 10.69125 2.265625 11.5625 C1.98531155 14.13478811 1.2948187 15.7803108 0 18 C0 16.02 0 14.04 0 12 C-0.66 12 -1.32 12 -2 12 C-2 12.66 -2 13.32 -2 14 C-2.66 14 -3.32 14 -4 14 C-4 13.01 -4 12.02 -4 11 C-3.34 11 -2.68 11 -2 11 C-2 9.68 -2 8.36 -2 7 C-2.66 7 -3.32 7 -4 7 C-4 6.01 -4 5.02 -4 4 C-3.34 4 -2.68 4 -2 4 C-2 4.66 -2 5.32 -2 6 C-1.34 6 -0.68 6 0 6 C0 4.02 0 2.04 0 0 Z " fill="#D9DAEA" transform="translate(252,43)"/>
<path d="M0 0 C2.31 0 4.62 0 7 0 C7.33 0.99 7.66 1.98 8 3 C7.01 3 6.02 3 5 3 C5 4.98 5 6.96 5 9 C10.28 9 15.56 9 21 9 C21 9.33 21 9.66 21 10 C18.18743719 10.02684312 15.37512759 10.04676188 12.5625 10.0625 C11.76005859 10.07087891 10.95761719 10.07925781 10.13085938 10.08789062 C8.08704779 10.0965143 6.04316098 10.0522815 4 10 C3 9 3 9 2.9375 5.9375 C2.958125 4.968125 2.97875 3.99875 3 3 C2.01 3 1.02 3 0 3 C0 2.01 0 1.02 0 0 Z " fill="#FBCFD0" transform="translate(228,29)"/>
<path d="M0 0 C0.66 0 1.32 0 2 0 C2 4.95 2 9.9 2 15 C-2 14 -2 14 -3.75 11.5625 C-5 9 -5 9 -5 7 C-4.01 7 -3.02 7 -2 7 C-1.67 7.66 -1.34 8.32 -1 9 C-0.67 6.03 -0.34 3.06 0 0 Z " fill="#EC282E" transform="translate(156,71)"/>
<path d="M0 0 C0.99 0 1.98 0 3 0 C2.67 1.98 2.34 3.96 2 6 C2.66 6 3.32 6 4 6 C4 5.34 4 4.68 4 4 C4.66 4 5.32 4 6 4 C6 5.98 6 7.96 6 10 C3.36 10 0.72 10 -2 10 C-2 8.68 -2 7.36 -2 6 C-1.34 6 -0.68 6 0 6 C0 4.02 0 2.04 0 0 Z " fill="#3B4095" transform="translate(246,51)"/>
<path d="M0 0 C2.64 0 5.28 0 8 0 C8 1.98 8 3.96 8 6 C5.03 5.505 5.03 5.505 2 5 C2 7.97 2 10.94 2 14 C1.67 14 1.34 14 1 14 C0.67 9.38 0.34 4.76 0 0 Z " fill="#494E9E" transform="translate(156,43)"/>
<path d="M0 0 C3.18099946 1.59049973 3.71754461 3.73556809 5 7 C5 9.97 5 12.94 5 16 C-0.94 16 -6.88 16 -13 16 C-13 15.67 -13 15.34 -13 15 C-7.39 15 -1.78 15 4 15 C4 13.02 4 11.04 4 9 C2.68 9 1.36 9 0 9 C0 6.03 0 3.06 0 0 Z " fill="#FAC7C9" transform="translate(268,23)"/>
<path d="M0 0 C1.81643761 3.11389304 2.2719038 5.40777709 2.25 9 C2.25515625 9.845625 2.2603125 10.69125 2.265625 11.5625 C1.98531155 14.13478811 1.2948187 15.7803108 0 18 C0 16.02 0 14.04 0 12 C-0.66 12 -1.32 12 -2 12 C-2 12.66 -2 13.32 -2 14 C-2.66 14 -3.32 14 -4 14 C-4 13.01 -4 12.02 -4 11 C-3.34 11 -2.68 11 -2 11 C-2 9.68 -2 8.36 -2 7 C-2.66 7 -3.32 7 -4 7 C-4 6.34 -4 5.68 -4 5 C-2.68 5.33 -1.36 5.66 0 6 C0 4.02 0 2.04 0 0 Z " fill="#EDEDF5" transform="translate(110,43)"/>
<path d="M0 0 C0.33 0 0.66 0 1 0 C1 2.97 1 5.94 1 9 C1.99 8.67 2.98 8.34 4 8 C4.33 5.69 4.66 3.38 5 1 C5.33 1 5.66 1 6 1 C6.10824843 2.6026782 6.18570645 4.20745748 6.25 5.8125 C6.29640625 6.70582031 6.3428125 7.59914063 6.390625 8.51953125 C6 11 6 11 3.984375 12.82421875 C3.00210937 13.40623047 3.00210937 13.40623047 2 14 C-0.21462117 12.23995897 -0.94503183 11.40964372 -1.328125 8.5546875 C-1.30234375 7.67039062 -1.2765625 6.78609375 -1.25 5.875 C-1.23453125 4.98554687 -1.2190625 4.09609375 -1.203125 3.1796875 C-1 1 -1 1 0 0 Z " fill="#333991" transform="translate(304,48)"/>
<path d="M0 0 C3 3 3 3 4.5 5.5625 C5.91804659 8.24718511 5.91804659 8.24718511 9 10 C5.78548731 11.60725635 2.56387464 11.05748185 -1 11 C-0.67 7.37 -0.34 3.74 0 0 Z " fill="#FDF1F1" transform="translate(149,77)"/>
<path d="M0 0 C0.66 0 1.32 0 2 0 C2.08119503 2.24940295 2.13927819 4.49964871 2.1875 6.75 C2.22230469 8.00296875 2.25710937 9.2559375 2.29296875 10.546875 C1.98802939 14.14109357 1.45605371 15.44725126 -1 18 C-1.8723412 15.00519083 -2.10829766 12.36424089 -2.0625 9.25 C-2.05347656 8.45078125 -2.04445312 7.6515625 -2.03515625 6.828125 C-2.02355469 6.22484375 -2.01195312 5.6215625 -2 5 C-1.67 5 -1.34 5 -1 5 C-0.67 3.35 -0.34 1.7 0 0 Z " fill="#E0E1EE" transform="translate(243,43)"/>
<path d="M0 0 C2.64 0 5.28 0 8 0 C8 1.98 8 3.96 8 6 C5.36 6 2.72 6 0 6 C0 4.02 0 2.04 0 0 Z " fill="#FEF7F7" transform="translate(187,13)"/>
<path d="M0 0 C1.98 0 3.96 0 6 0 C6.05447047 1.41623216 6.09300508 2.83308191 6.125 4.25 C6.14820313 5.03890625 6.17140625 5.8278125 6.1953125 6.640625 C5.9828378 9.20731941 5.28654105 10.7916067 4 13 C4 11.02 4 9.04 4 7 C3.34 7 2.68 7 2 7 C2 7.66 2 8.32 2 9 C1.34 9 0.68 9 0 9 C0 6.03 0 3.06 0 0 Z " fill="#E1E2EF" transform="translate(151,48)"/>
<path d="M0 0 C2.31 0 4.62 0 7 0 C7.33 0.66 7.66 1.32 8 2 C8.99 2 9.98 2 11 2 C11 2.66 11 3.32 11 4 C8.47524538 5.26237731 6.68799534 5.09856404 3.875 5.0625 C2.96492188 5.05347656 2.05484375 5.04445313 1.1171875 5.03515625 C0.41851562 5.02355469 -0.28015625 5.01195313 -1 5 C-0.67 3.35 -0.34 1.7 0 0 Z " fill="#FDEEEF" transform="translate(65,83)"/>
<path d="M0 0 C0.94875 0.04125 1.8975 0.0825 2.875 0.125 C2.875 2.105 2.875 4.085 2.875 6.125 C0.4 5.135 0.4 5.135 -2.125 4.125 C-2.125 7.095 -2.125 10.065 -2.125 13.125 C-2.455 13.125 -2.785 13.125 -3.125 13.125 C-3.269375 12.0525 -3.41375 10.98 -3.5625 9.875 C-4.00454706 6.33314728 -4.00454706 6.33314728 -4.8125 3.8125 C-4.915625 3.255625 -5.01875 2.69875 -5.125 2.125 C-3.125 0.125 -3.125 0.125 0 0 Z " fill="#4A4F9D" transform="translate(318.125,42.875)"/>
<path d="M0 0 C0.33 0 0.66 0 1 0 C1 2.64 1 5.28 1 8 C1.45375 7.505 1.9075 7.01 2.375 6.5 C4 5 4 5 6 5 C5.45276317 8.37462715 4.9451 10.08235 3 13 C1.0625 12.3125 1.0625 12.3125 -1 11 C-1.75 8.375 -1.75 8.375 -2 6 C-1.34 6 -0.68 6 0 6 C0 4.02 0 2.04 0 0 Z " fill="#464B9B" transform="translate(256,49)"/>
<path d="M0 0 C0.33 0 0.66 0 1 0 C1 5.61 1 11.22 1 17 C0.67 17 0.34 17 0 17 C0 15.02 0 13.04 0 11 C-1.98 11.99 -1.98 11.99 -4 13 C-4 10.03 -4 7.06 -4 4 C-2.68 4.33 -1.36 4.66 0 5 C0 3.35 0 1.7 0 0 Z " fill="#EEEFF6" transform="translate(164,44)"/>
<path d="M0 0 C1.32 0.66 2.64 1.32 4 2 C4 1.34 4 0.68 4 0 C4.66 0 5.32 0 6 0 C5.67 2.64 5.34 5.28 5 8 C4.67 7.01 4.34 6.02 4 5 C3.01 5 2.02 5 1 5 C1.33 6.65 1.66 8.3 2 10 C1.01 10 0.02 10 -1 10 C-1.02689216 8.52093108 -1.04634621 7.04172517 -1.0625 5.5625 C-1.07410156 4.73878906 -1.08570312 3.91507813 -1.09765625 3.06640625 C-1 1 -1 1 0 0 Z " fill="#D9DAEA" transform="translate(126,47)"/>
<path d="M0 0 C0.33 0 0.66 0 1 0 C1 4.29 1 8.58 1 13 C0.67 13 0.34 13 0 13 C0 11.35 0 9.7 0 8 C-0.99 8 -1.98 8 -3 8 C-2.67 9.65 -2.34 11.3 -2 13 C-2.99 12.67 -3.98 12.34 -5 12 C-5 9.36 -5 6.72 -5 4 C-4.01 3.67 -3.02 3.34 -2 3 C-2 3.66 -2 4.32 -2 5 C-1.34 5 -0.68 5 0 5 C0 3.35 0 1.7 0 0 Z " fill="#C7C9E1" transform="translate(67,44)"/>
<path d="M0 0 C2.64 0 5.28 0 8 0 C8 1.98 8 3.96 8 6 C5.36 5.67 2.72 5.34 0 5 C0 3.35 0 1.7 0 0 Z " fill="#4C519E" transform="translate(147,43)"/>
<path d="M0 0 C0.99 0 1.98 0 3 0 C3 5.28 3 10.56 3 16 C2.34 16 1.68 16 1 16 C1 12.37 1 8.74 1 5 C0.34 5 -0.32 5 -1 5 C-0.67 3.35 -0.34 1.7 0 0 Z " fill="#EC292F" transform="translate(201,71)"/>
<path d="M0 0 C0.639375 0.33 1.27875 0.66 1.9375 1 C3.76794567 2.07271225 3.76794567 2.07271225 5 2 C5 3.98 5 5.96 5 8 C4.01 7.67 3.02 7.34 2 7 C1.67 7.99 1.34 8.98 1 10 C0.34 10 -0.32 10 -1 10 C-1.02689216 8.52093108 -1.04634621 7.04172517 -1.0625 5.5625 C-1.07410156 4.73878906 -1.08570312 3.91507813 -1.09765625 3.06640625 C-1 1 -1 1 0 0 Z " fill="#EAEBF3" transform="translate(18,47)"/>
<path d="M0 0 C0.99 0.33 1.98 0.66 3 1 C2.01 3.97 1.02 6.94 0 10 C-1.32 10 -2.64 10 -4 10 C-4.33 8.68 -4.66 7.36 -5 6 C-4.34 6 -3.68 6 -3 6 C-2.690625 5.38125 -2.38125 4.7625 -2.0625 4.125 C-1.375 2.75 -0.6875 1.375 0 0 Z " fill="#EF4449" transform="translate(199,75)"/>
<path d="M0 0 C0.66 0.33 1.32 0.66 2 1 C2.3690205 10.41002278 2.3690205 10.41002278 0 15 C-0.99 14.67 -1.98 14.34 -3 14 C-2.34 14 -1.68 14 -1 14 C-1.01160156 13.07316406 -1.02320313 12.14632812 -1.03515625 11.19140625 C-1.04417969 9.99386719 -1.05320313 8.79632813 -1.0625 7.5625 C-1.07410156 6.36753906 -1.08570313 5.17257813 -1.09765625 3.94140625 C-1 1 -1 1 0 0 Z " fill="#C9CBE2" transform="translate(146,47)"/>
<path d="M0 0 C2.31 0 4.62 0 7 0 C7 1.65 7 3.3 7 5 C6.01 5.495 6.01 5.495 5 6 C4.01 5.01 3.02 4.02 2 3 C1.67 6.3 1.34 9.6 1 13 C0.67 13 0.34 13 0 13 C0 8.71 0 4.42 0 0 Z " fill="#353B92" transform="translate(166,44)"/>
<path d="M0 0 C1.32 0 2.64 0 4 0 C3.67 6.27 3.34 12.54 3 19 C2.01 18.67 1.02 18.34 0 18 C0.66 18 1.32 18 2 18 C2 15.03 2 12.06 2 9 C1.34 8.67 0.68 8.34 0 8 C0 5.36 0 2.72 0 0 Z " fill="#585CA5" transform="translate(117,43)"/>
<path d="M0 0 C0.66 0.33 1.32 0.66 2 1 C2.73075648 3.3140622 3.40138258 5.64828869 4 8 C4.99 8 5.98 8 7 8 C6.67 8.99 6.34 9.98 6 11 C3.69 11 1.38 11 -1 11 C-1.33 10.34 -1.66 9.68 -2 9 C-1.34 9 -0.68 9 0 9 C0 6.03 0 3.06 0 0 Z " fill="#FAC8CA" transform="translate(192,77)"/>
<path d="M0 0 C0.33 0 0.66 0 1 0 C2.5660349 6.06838523 3.18482809 12.44858029 0 18 C-1.67407948 12.14072182 -1.52003714 5.89014391 0 0 Z " fill="#C6C7E0" transform="translate(136,43)"/>
<path d="M0 0 C0.99 0.33 1.98 0.66 3 1 C3.69658363 2.65438613 4.36096883 4.32254318 5 6 C5.8353125 6.7734375 5.8353125 6.7734375 6.6875 7.5625 C7.120625 8.036875 7.55375 8.51125 8 9 C7.6875 11.1875 7.6875 11.1875 7 13 C7 12.01 7 11.02 7 10 C6.360625 9.71125 5.72125 9.4225 5.0625 9.125 C3 8 3 8 2 6 C1.01 6 0.02 6 -1 6 C-1.042721 4.33388095 -1.04063832 2.66617115 -1 1 C-0.67 0.67 -0.34 0.34 0 0 Z " fill="#557956" transform="translate(161,3)"/>
<path d="M0 0 C5.75 0.75 5.75 0.75 8 3 C8.1953125 5.1640625 8.1953125 5.1640625 8.125 7.625 C8.10695312 8.44226563 8.08890625 9.25953125 8.0703125 10.1015625 C8.03550781 11.04128906 8.03550781 11.04128906 8 12 C6 10 6 10 5.1875 7 C4.2945785 3.79029933 4.2945785 3.79029933 1.375 2.625 C0.59125 2.41875 -0.1925 2.2125 -1 2 C-0.67 1.34 -0.34 0.68 0 0 Z " fill="#ED2E34" transform="translate(219,71)"/>
<path d="M0 0 C5.75 0.75 5.75 0.75 8 3 C8.1953125 5.1640625 8.1953125 5.1640625 8.125 7.625 C8.10695312 8.44226563 8.08890625 9.25953125 8.0703125 10.1015625 C8.03550781 11.04128906 8.03550781 11.04128906 8 12 C6 10 6 10 5.1875 7 C4.2945785 3.79029933 4.2945785 3.79029933 1.375 2.625 C0.59125 2.41875 -0.1925 2.2125 -1 2 C-0.67 1.34 -0.34 0.68 0 0 Z " fill="#ED2E34" transform="translate(173,71)"/>
<path d="M0 0 C0.66 0 1.32 0 2 0 C2 0.66 2 1.32 2 2 C2.66 2.33 3.32 2.66 4 3 C5 4 5 4 5.0625 7.0625 C5.041875 8.031875 5.02125 9.00125 5 10 C4.67 10 4.34 10 4 10 C4 8.35 4 6.7 4 5 C3.01 5 2.02 5 1 5 C1.33 6.65 1.66 8.3 2 10 C1.01 9.67 0.02 9.34 -1 9 C-1.09765625 2.84765625 -1.09765625 2.84765625 -1 1 C-0.67 0.67 -0.34 0.34 0 0 Z " fill="#C6C8E0" transform="translate(195,47)"/>
<path d="M0 0 C0.33 0 0.66 0 1 0 C1 4.29 1 8.58 1 13 C-0.32 13 -1.64 13 -3 13 C-3 10.69 -3 8.38 -3 6 C-2.01 6.495 -2.01 6.495 -1 7 C-0.67 4.69 -0.34 2.38 0 0 Z " fill="#5C60A7" transform="translate(271,48)"/>
<path d="M0 0 C2.31 0 4.62 0 7 0 C7.33 0.99 7.66 1.98 8 3 C6.68 3 5.36 3 4 3 C4 4.98 4 6.96 4 9 C3.67 9 3.34 9 3 9 C3 7.02 3 5.04 3 3 C1.68 3 0.36 3 -1 3 C-0.67 2.01 -0.34 1.02 0 0 Z " fill="#FCE5E6" transform="translate(130,29)"/>
<path d="M0 0 C0.33 0 0.66 0 1 0 C2.5660349 6.06838523 3.18482809 12.44858029 0 18 C-1.52003714 12.10985609 -1.67407948 5.85927818 0 0 Z " fill="#D4D4E7" transform="translate(90,43)"/>
<path d="M0 0 C0.99 0 1.98 0 3 0 C3.33 1.98 3.66 3.96 4 6 C3.34 6 2.68 6 2 6 C1.67 7.32 1.34 8.64 1 10 C0.67 10 0.34 10 0 10 C0 6.7 0 3.4 0 0 Z " fill="#383E94" transform="translate(148,48)"/>
<path d="M0 0 C0.33 0 0.66 0 1 0 C1 4.62 1 9.24 1 14 C0.34 14 -0.32 14 -1 14 C-2.51708428 4.58997722 -2.51708428 4.58997722 0 0 Z " fill="#D7D8E9" transform="translate(212,43)"/>
<path d="M0 0 C2.31 0 4.62 0 7 0 C7 0.99 7 1.98 7 3 C6.01 3 5.02 3 4 3 C4 4.98 4 6.96 4 9 C3.67 9 3.34 9 3 9 C3 7.02 3 5.04 3 3 C1.68 3 0.36 3 -1 3 C-0.67 2.01 -0.34 1.02 0 0 Z " fill="#FDECED" transform="translate(318,29)"/>
<path d="M0 0 C0.33 0 0.66 0 1 0 C1 2.97 1 5.94 1 9 C-0.65 9 -2.3 9 -4 9 C-2.94124926 5.59687262 -1.99097846 2.98646769 0 0 Z " fill="#FACFD1" transform="translate(285,23)"/>
<path d="M0 0 C0.33 0 0.66 0 1 0 C1.33 4.29 1.66 8.58 2 13 C0.35 13 -1.3 13 -3 13 C-2.67 11.68 -2.34 10.36 -2 9 C-1.67 9 -1.34 9 -1 9 C-0.67 6.03 -0.34 3.06 0 0 Z " fill="#4E53A0" transform="translate(240,48)"/>
<path d="M0 0 C1.33333333 0 2.66666667 0 4 0 C4 2.64 4 5.28 4 8 C2.68 8 1.36 8 0 8 C0 5.36 0 2.72 0 0 Z " fill="#4F54A0" transform="translate(324,53)"/>
<path d="M0 0 C2.475 0.99 2.475 0.99 5 2 C5 3.65 5 5.3 5 7 C3.35 7.66 1.7 8.32 0 9 C0 6.03 0 3.06 0 0 Z " fill="#EAEAF3" transform="translate(54,48)"/>
<path d="M0 0 C0.33 0 0.66 0 1 0 C1 3.3 1 6.6 1 10 C-0.32 9.67 -1.64 9.34 -3 9 C-2.01 6.03 -1.02 3.06 0 0 Z " fill="#FCE4E5" transform="translate(201,78)"/>
<path d="M0 0 C3 1 3 1 5 3 C2.69 3.66 0.38 4.32 -2 5 C-2.33 6.98 -2.66 8.96 -3 11 C-3.33 11 -3.66 11 -4 11 C-4.49230769 4.6 -4.49230769 4.6 -2 1.5625 C-1.34 1.046875 -0.68 0.53125 0 0 Z " fill="#EF4E53" transform="translate(127,71)"/>
<path d="M0 0 C0.99 0 1.98 0 3 0 C2.67 2.64 2.34 5.28 2 8 C0.68 8 -0.64 8 -2 8 C-1.33333333 5.33333333 -0.66666667 2.66666667 0 0 Z " fill="#5055A1" transform="translate(327,43)"/>
<path d="M0 0 C0.99 0 1.98 0 3 0 C3.33 2.64 3.66 5.28 4 8 C2.68 7.67 1.36 7.34 0 7 C0 4.69 0 2.38 0 0 Z " fill="#343A92" transform="translate(182,44)"/>
<path d="M0 0 C2.625 0.9375 2.625 0.9375 5 2 C5 2.33 5 2.66 5 3 C3.35 3.33 1.7 3.66 0 4 C-0.33 5.98 -0.66 7.96 -1 10 C-2.625 8.3125 -2.625 8.3125 -4 6 C-3.3125 3.3125 -3.3125 3.3125 -2 1 C-1.34 0.67 -0.68 0.34 0 0 Z " fill="#EF4E52" transform="translate(217,71)"/>
<path d="M0 0 C2.625 0.9375 2.625 0.9375 5 2 C5 2.33 5 2.66 5 3 C3.35 3.33 1.7 3.66 0 4 C-0.33 5.98 -0.66 7.96 -1 10 C-2.625 8.3125 -2.625 8.3125 -4 6 C-3.3125 3.3125 -3.3125 3.3125 -2 1 C-1.34 0.67 -0.68 0.34 0 0 Z " fill="#EF4E52" transform="translate(171,71)"/>
<path d="M0 0 C0.33 0 0.66 0 1 0 C1.33 4.29 1.66 8.58 2 13 C0.68 13 -0.64 13 -2 13 C-2 11.68 -2 10.36 -2 9 C-1.34 9 -0.68 9 0 9 C0 6.03 0 3.06 0 0 Z " fill="#373D93" transform="translate(177,48)"/>
<path d="M0 0 C0.99 0 1.98 0 3 0 C2.67 2.97 2.34 5.94 2 9 C1.01 9 0.02 9 -1 9 C-0.67 6.03 -0.34 3.06 0 0 Z " fill="#5055A0" transform="translate(187,43)"/>
<path d="M0 0 C0 2.97 0 5.94 0 9 C-0.66 9 -1.32 9 -2 9 C-3.35439668 6.29120665 -3.06501451 3.99066732 -3 1 C-1 0 -1 0 0 0 Z " fill="#343A91" transform="translate(119,52)"/>
<path d="M0 0 C0.99 0 1.98 0 3 0 C3 1.65 3 3.3 3 5 C0.69 5 -1.62 5 -4 5 C-4 4.34 -4 3.68 -4 3 C-2.68 2.67 -1.36 2.34 0 2 C0 1.34 0 0.68 0 0 Z " fill="#668866" transform="translate(167,34)"/>
<path d="M0 0 C0.33 0 0.66 0 1 0 C1.33 4.29 1.66 8.58 2 13 C1.01 13 0.02 13 -1 13 C-0.67 8.71 -0.34 4.42 0 0 Z " fill="#3F4598" transform="translate(112,48)"/>
<path d="M0 0 C0.33 0 0.66 0 1 0 C1 2.31 1 4.62 1 7 C-0.32 7 -1.64 7 -3 7 C-2.25 2.25 -2.25 2.25 0 0 Z " fill="#4A509E" transform="translate(266,54)"/>
<path d="M0 0 C0.33 0 0.66 0 1 0 C1.05447047 1.41623216 1.09300508 2.83308191 1.125 4.25 C1.14820313 5.03890625 1.17140625 5.8278125 1.1953125 6.640625 C0.9828378 9.20731941 0.28654105 10.7916067 -1 13 C-1.22245393 11.39773045 -1.42746669 9.79303233 -1.625 8.1875 C-1.74101562 7.29417969 -1.85703125 6.40085937 -1.9765625 5.48046875 C-2 3 -2 3 0 0 Z " fill="#CBCDE3" transform="translate(175,48)"/>
<path d="M0 0 C0.99 0.33 1.98 0.66 3 1 C3 1.66 3 2.32 3 3 C3.66 3.33 4.32 3.66 5 4 C4.01 4.33 3.02 4.66 2 5 C2 6.65 2 8.3 2 10 C1.34 10 0.68 10 0 10 C0 6.7 0 3.4 0 0 Z " fill="#E7E8F2" transform="translate(316,47)"/>
<path d="M0 0 C0.33 0 0.66 0 1 0 C1 3.63 1 7.26 1 11 C0.01 11 -0.98 11 -2 11 C-1.85892253 9.54119891 -1.71197585 8.08296449 -1.5625 6.625 C-1.48128906 5.81289063 -1.40007812 5.00078125 -1.31640625 4.1640625 C-1 2 -1 2 0 0 Z " fill="#C1C3DD" transform="translate(312,47)"/>
<path d="M0 0 C0 1.65 0 3.3 0 5 C0.99 5.33 1.98 5.66 3 6 C-0.71599191 6.20086443 -1.77208445 6.1519437 -5 4 C-5 3.01 -5 2.02 -5 1 C-1.125 0 -1.125 0 0 0 Z " fill="#4A704A" transform="translate(167,25)"/>
<path d="M0 0 C0.99 0 1.98 0 3 0 C3.66 1.98 4.32 3.96 5 6 C3.68 5.67 2.36 5.34 1 5 C0.67 3.35 0.34 1.7 0 0 Z " fill="#ED353A" transform="translate(67,71)"/>
<path d="M0 0 C0 2.97 0 5.94 0 9 C-0.33 8.34 -0.66 7.68 -1 7 C-1.66 7 -2.32 7 -3 7 C-3 5.02 -3 3.04 -3 1 C-1 0 -1 0 0 0 Z " fill="#3A4095" transform="translate(232,48)"/>
<path d="M0 0 C0.33 0 0.66 0 1 0 C1.66 2.97 2.32 5.94 3 9 C1.02 9 -0.96 9 -3 9 C-2.67 8.01 -2.34 7.02 -2 6 C-1.34 6 -0.68 6 0 6 C0 4.02 0 2.04 0 0 Z " fill="#D5D6E8" transform="translate(321,43)"/>
<path d="M0 0 C0.99 0 1.98 0 3 0 C2.67 2.97 2.34 5.94 2 9 C0.11656068 5.23312136 -0.22057835 3.97041037 0 0 Z " fill="#424799" transform="translate(143,43)"/>
<path d="M0 0 C1.67542976 0.28604898 3.34385343 0.61781233 5 1 C5.33 2.32 5.66 3.64 6 5 C3.50638429 3.79618552 1.31856917 2.54571278 -1 1 C-0.67 0.67 -0.34 0.34 0 0 Z " fill="#ED2C32" transform="translate(130,71)"/>
<path d="M0 0 C0.33 0 0.66 0 1 0 C1.33 3.3 1.66 6.6 2 10 C1.01 10 0.02 10 -1 10 C-0.67 6.7 -0.34 3.4 0 0 Z " fill="#333991" transform="translate(138,51)"/>
<path d="M0 0 C0.33 0 0.66 0 1 0 C1.29296875 6.0546875 1.29296875 6.0546875 1 8 C0.01 8.66 -0.98 9.32 -2 10 C-1.34 6.7 -0.68 3.4 0 0 Z " fill="#E8E9F2" transform="translate(33,49)"/>
<path d="M0 0 C1.65 0 3.3 0 5 0 C4.01 0.495 4.01 0.495 3 1 C3 3.31 3 5.62 3 8 C2.67 6.68 2.34 5.36 2 4 C1.34 4 0.68 4 0 4 C0 2.68 0 1.36 0 0 Z " fill="#7276B3" transform="translate(179,43)"/>
<path d="M0 0 C2.97 0.495 2.97 0.495 6 1 C6 1.99 6 2.98 6 4 C5.01 4 4.02 4 3 4 C3 4.66 3 5.32 3 6 C2.34 5.67 1.68 5.34 1 5 C0.375 2.4375 0.375 2.4375 0 0 Z " fill="#285329" transform="translate(164,30)"/>
</svg>
